<mxfile host="app.diagrams.net" agent="Mozilla/5.0 (Windows NT 10.0; Win64; x64; rv:137.0) Gecko/20100101 Firefox/137.0" version="26.2.6">
  <diagram name="Seite-1" id="l0WvUJElL2ecB1N14b2X">
    <mxGraphModel dx="1148" dy="693" grid="1" gridSize="10" guides="1" tooltips="1" connect="1" arrows="1" fold="1" page="1" pageScale="1" pageWidth="1169" pageHeight="826" math="0" shadow="0">
      <root>
        <mxCell id="0" />
        <mxCell id="1" parent="0" />
        <mxCell id="_Efm3URx336y0hWJy-us-1" style="edgeStyle=orthogonalEdgeStyle;rounded=0;orthogonalLoop=1;jettySize=auto;html=1;" edge="1" parent="1" source="_Efm3URx336y0hWJy-us-2" target="_Efm3URx336y0hWJy-us-4">
          <mxGeometry relative="1" as="geometry" />
        </mxCell>
        <mxCell id="_Efm3URx336y0hWJy-us-2" value="" style="ellipse;shape=startState;fillColor=#000000;strokeColor=#ff0000;" vertex="1" parent="1">
          <mxGeometry x="424.51" y="60" width="30" height="30" as="geometry" />
        </mxCell>
        <mxCell id="_Efm3URx336y0hWJy-us-3" style="edgeStyle=orthogonalEdgeStyle;rounded=0;orthogonalLoop=1;jettySize=auto;html=1;entryX=0.5;entryY=0;entryDx=0;entryDy=0;" edge="1" parent="1" source="_Efm3URx336y0hWJy-us-4">
          <mxGeometry relative="1" as="geometry">
            <mxPoint x="439.51" y="190" as="targetPoint" />
          </mxGeometry>
        </mxCell>
        <mxCell id="_Efm3URx336y0hWJy-us-4" value="Foto anklicken" style="" vertex="1" parent="1">
          <mxGeometry x="384.51" y="110" width="110" height="50" as="geometry" />
        </mxCell>
        <mxCell id="_Efm3URx336y0hWJy-us-5" value="Fotos auswählen" style="shape=umlFrame;whiteSpace=wrap;html=1;pointerEvents=0;width=106;height=30;" vertex="1" parent="1">
          <mxGeometry x="130" y="50" width="650" height="420" as="geometry" />
        </mxCell>
        <mxCell id="_Efm3URx336y0hWJy-us-6" style="edgeStyle=orthogonalEdgeStyle;rounded=0;orthogonalLoop=1;jettySize=auto;html=1;entryX=0;entryY=0.5;entryDx=0;entryDy=0;" edge="1" parent="1" source="_Efm3URx336y0hWJy-us-10" target="_Efm3URx336y0hWJy-us-12">
          <mxGeometry relative="1" as="geometry">
            <Array as="points">
              <mxPoint x="550" y="210" />
              <mxPoint x="550" y="210" />
            </Array>
          </mxGeometry>
        </mxCell>
        <mxCell id="_Efm3URx336y0hWJy-us-7" value="bereits ausgewählt" style="edgeLabel;html=1;align=center;verticalAlign=middle;resizable=0;points=[];" vertex="1" connectable="0" parent="_Efm3URx336y0hWJy-us-6">
          <mxGeometry x="-0.3552" relative="1" as="geometry">
            <mxPoint x="9" y="-11" as="offset" />
          </mxGeometry>
        </mxCell>
        <mxCell id="_Efm3URx336y0hWJy-us-8" style="edgeStyle=orthogonalEdgeStyle;rounded=0;orthogonalLoop=1;jettySize=auto;html=1;entryX=1;entryY=0.5;entryDx=0;entryDy=0;" edge="1" parent="1" source="_Efm3URx336y0hWJy-us-10" target="_Efm3URx336y0hWJy-us-19">
          <mxGeometry relative="1" as="geometry">
            <mxPoint x="439.5" y="570" as="targetPoint" />
            <Array as="points" />
          </mxGeometry>
        </mxCell>
        <mxCell id="_Efm3URx336y0hWJy-us-9" value="noch nicht ausgewählt" style="edgeLabel;html=1;align=center;verticalAlign=middle;resizable=0;points=[];" vertex="1" connectable="0" parent="_Efm3URx336y0hWJy-us-8">
          <mxGeometry x="0.3443" y="2" relative="1" as="geometry">
            <mxPoint x="23" y="-12" as="offset" />
          </mxGeometry>
        </mxCell>
        <mxCell id="_Efm3URx336y0hWJy-us-10" value="" style="rhombus;fillColor=#ffffc0;strokeColor=#ff0000;" vertex="1" parent="1">
          <mxGeometry x="411.76" y="190" width="55.49" height="40" as="geometry" />
        </mxCell>
        <mxCell id="_Efm3URx336y0hWJy-us-22" style="edgeStyle=orthogonalEdgeStyle;rounded=0;orthogonalLoop=1;jettySize=auto;html=1;" edge="1" parent="1" source="_Efm3URx336y0hWJy-us-12" target="_Efm3URx336y0hWJy-us-20">
          <mxGeometry relative="1" as="geometry">
            <Array as="points">
              <mxPoint x="640" y="280" />
              <mxPoint x="440" y="280" />
            </Array>
          </mxGeometry>
        </mxCell>
        <mxCell id="_Efm3URx336y0hWJy-us-12" value="Foto aus Auswahl &#xa;entfernen" style="" vertex="1" parent="1">
          <mxGeometry x="570" y="185" width="140" height="50" as="geometry" />
        </mxCell>
        <mxCell id="_Efm3URx336y0hWJy-us-13" value="" style="ellipse;shape=endState;fillColor=#000000;strokeColor=#ff0000" vertex="1" parent="1">
          <mxGeometry x="40" y="311.25" width="30" height="30" as="geometry" />
        </mxCell>
        <mxCell id="_Efm3URx336y0hWJy-us-14" style="edgeStyle=orthogonalEdgeStyle;rounded=0;orthogonalLoop=1;jettySize=auto;html=1;" edge="1" parent="1" source="_Efm3URx336y0hWJy-us-15" target="_Efm3URx336y0hWJy-us-13">
          <mxGeometry relative="1" as="geometry" />
        </mxCell>
        <mxCell id="_Efm3URx336y0hWJy-us-15" value="Abbrechen" style="shape=dataStorage;whiteSpace=wrap;html=1;fixedSize=1;" vertex="1" parent="1">
          <mxGeometry x="160" y="302.75" width="110" height="47" as="geometry" />
        </mxCell>
        <mxCell id="_Efm3URx336y0hWJy-us-16" style="edgeStyle=orthogonalEdgeStyle;rounded=0;orthogonalLoop=1;jettySize=auto;html=1;dashed=1;" edge="1" parent="1" source="_Efm3URx336y0hWJy-us-17" target="_Efm3URx336y0hWJy-us-15">
          <mxGeometry relative="1" as="geometry" />
        </mxCell>
        <mxCell id="_Efm3URx336y0hWJy-us-17" value="Man kann jederzeit die Aktivität abbrechen" style="shape=note;whiteSpace=wrap;size=17" vertex="1" parent="1">
          <mxGeometry x="165" y="378.25" width="100" height="70" as="geometry" />
        </mxCell>
        <mxCell id="_Efm3URx336y0hWJy-us-23" style="edgeStyle=orthogonalEdgeStyle;rounded=0;orthogonalLoop=1;jettySize=auto;html=1;" edge="1" parent="1" source="_Efm3URx336y0hWJy-us-19" target="_Efm3URx336y0hWJy-us-20">
          <mxGeometry relative="1" as="geometry">
            <Array as="points">
              <mxPoint x="230" y="280" />
              <mxPoint x="440" y="280" />
            </Array>
          </mxGeometry>
        </mxCell>
        <mxCell id="_Efm3URx336y0hWJy-us-19" value="Foto in Auswahl &#xa;speichern" style="" vertex="1" parent="1">
          <mxGeometry x="160" y="185.75" width="140" height="50" as="geometry" />
        </mxCell>
        <mxCell id="_Efm3URx336y0hWJy-us-28" style="edgeStyle=orthogonalEdgeStyle;rounded=0;orthogonalLoop=1;jettySize=auto;html=1;" edge="1" parent="1" source="_Efm3URx336y0hWJy-us-20" target="_Efm3URx336y0hWJy-us-4">
          <mxGeometry relative="1" as="geometry">
            <Array as="points">
              <mxPoint x="740" y="323" />
              <mxPoint x="740" y="135" />
            </Array>
          </mxGeometry>
        </mxCell>
        <mxCell id="_Efm3URx336y0hWJy-us-29" value="Noch mehr Fotos auswählen" style="edgeLabel;html=1;align=center;verticalAlign=middle;resizable=0;points=[];" vertex="1" connectable="0" parent="_Efm3URx336y0hWJy-us-28">
          <mxGeometry x="-0.6401" y="-2" relative="1" as="geometry">
            <mxPoint y="-15" as="offset" />
          </mxGeometry>
        </mxCell>
        <mxCell id="_Efm3URx336y0hWJy-us-20" value="" style="rhombus;fillColor=#ffffc0;strokeColor=#ff0000;" vertex="1" parent="1">
          <mxGeometry x="411.77" y="302.75" width="55.49" height="40" as="geometry" />
        </mxCell>
        <mxCell id="_Efm3URx336y0hWJy-us-24" value="" style="ellipse;shape=endState;fillColor=#000000;strokeColor=#ff0000" vertex="1" parent="1">
          <mxGeometry x="424.51" y="383" width="30" height="30" as="geometry" />
        </mxCell>
        <mxCell id="_Efm3URx336y0hWJy-us-26" style="edgeStyle=orthogonalEdgeStyle;rounded=0;orthogonalLoop=1;jettySize=auto;html=1;entryX=0.533;entryY=0.206;entryDx=0;entryDy=0;entryPerimeter=0;" edge="1" parent="1" source="_Efm3URx336y0hWJy-us-20" target="_Efm3URx336y0hWJy-us-24">
          <mxGeometry relative="1" as="geometry" />
        </mxCell>
        <mxCell id="_Efm3URx336y0hWJy-us-30" value="keine Fotos mehr auswählen" style="edgeLabel;html=1;align=center;verticalAlign=middle;resizable=0;points=[];" vertex="1" connectable="0" parent="_Efm3URx336y0hWJy-us-26">
          <mxGeometry x="-0.2295" y="-1" relative="1" as="geometry">
            <mxPoint as="offset" />
          </mxGeometry>
        </mxCell>
      </root>
    </mxGraphModel>
  </diagram>
</mxfile>
